<svg width="630" height="561" viewBox="0 0 630 561" fill="none" xmlns="http://www.w3.org/2000/svg">
<path d="M82 23H97L107 27L114 35L117 43V59L115 68L134 87L142 94L271 223L279 230L408 359L416 366L497 447L498 415L494 413L420 339L412 332L342 262L334 255L264 185L256 178L186 108L180 104L176 105H162L154 101L148 93L146 87V77L151 67L157 62L165 59H176L186 64L190 69L193 76V87L191 93L195 95L203 100L218 69L231 41H350L369 87L377 106V109L381 108H394L403 112L411 119L414 124L415 128V141L412 149L416 151L426 161L434 168L436 170L435 185L431 218L432 223L449 239L458 248L466 255L478 267L486 274L498 286L506 293L518 305L526 312L538 324L546 331L558 343L566 350L578 362L586 369L598 381L606 388L618 400L626 407L630 411V561H500L499 534L180 215H163L154 212L146 203L144 197L145 185L150 175L155 171L159 169L171 168L181 171L186 176L189 180L190 183V200L189 205L303 319L311 326L441 456L449 463L498 512V472L385 359L377 352L104 79L89 80L78 78L70 73L64 66L61 58V49L64 37L70 29L76 25L82 23ZM86 39L80 43L77 48V56L81 62L86 65H93L100 61L103 55L102 46L97 41L93 39H86ZM166 71L160 76L159 84L162 89L166 92H173L178 89L180 86V78L177 73L173 71H166ZM386 121L381 126L380 128V135L385 141L387 142L396 141L400 137L401 128L398 123L394 121H386ZM398 155L408 178L418 201L420 199L421 176L400 155H398ZM164 182L158 187L157 194L160 200L165 203H171L176 200L178 197V188L174 183L172 182H164ZM400 258L394 262L392 269L395 276L399 279H407L412 275L414 270L413 264L408 259L406 258H400ZM445 259L448 268L457 288L461 289L473 287V284L463 274L455 267L446 259H445ZM485 298L479 299L463 300L466 309L485 351L496 376H497V306L489 298H485Z" fill="#672E6F"/>
<path d="M136 246L151 247L188 248L232 292L240 299L498 557V559H464L457 545L450 529L432 511L425 503L398 476L391 468L370 447L167 446L166 451L152 487L138 522L124 557L123 559H0L10 535L25 501L45 455L62 416L79 377L96 338L113 299L130 260L136 246ZM223 313L208 350L206 357H265L262 352L249 339L242 331L233 322L226 314L223 313Z" fill="#882C5F"/>
<path d="M498 30H625L627 178V249L619 243L587 211L579 204L550 175L542 168L514 140L506 133L498 125L493 127L486 130H473L465 126L460 121L456 115L455 111V100L460 90L467 84L472 82L479 81L489 83L497 88L498 30ZM475 96L470 100L469 102V110L474 116L481 117L487 114L490 108L489 101L484 96H475Z" fill="#702D6B"/>
<path d="M82 23H97L107 27L114 35L117 43V59L115 68L134 87L142 94L271 223L279 230L408 359L416 366L498 448L499 450V472L492 466L385 359L377 352L104 79L89 80L78 78L70 73L64 66L61 58V49L64 37L70 29L76 25L82 23ZM86 39L80 43L77 48V56L81 62L86 65H93L100 61L103 55L102 46L97 41L93 39H86Z" fill="#582F75"/>
<path d="M165 168L176 169L182 172L187 177L190 183V200L189 205L303 319L311 326L441 456L449 463L499 513L500 521V534L493 528L180 215H163L154 212L146 203L144 197L145 185L150 175L155 171L159 169L165 168ZM164 182L158 187L157 194L160 200L165 203H171L176 200L178 197V188L174 183L172 182H164Z" fill="#592F75"/>
<path d="M395 0H403L412 3L419 9L423 17L424 21V29L423 36L434 45L445 55L447 56L446 75L442 119L452 128L468 143L480 154L495 168L507 179L522 193L534 204L549 218L561 229L576 243L588 254L603 268L615 279L630 293V312L626 310L609 294L596 282L583 270L568 256L555 244L542 232L527 218L515 207L500 193L488 182L473 168L461 157L446 143L434 132L427 126L428 107L431 69L432 62L428 60L414 47L411 46L406 47H399L389 44L379 35L376 28V18L379 11L385 4L391 1L395 0ZM397 13L393 15L390 21L391 28L396 33L403 34L408 31L411 27V19L407 14L405 13H397Z" fill="#692E6F"/>
<path d="M472 197H484L492 200L497 205L500 209L502 216V225L501 234L509 242L517 249L534 265L547 277L563 292L576 304L592 319L605 331L620 345L628 352V360L627 367H623L610 354L602 347L595 340L587 333L579 325L571 318L564 311L556 304L548 296L540 289L533 282L525 275L518 268L510 261L502 253L494 246L490 243L484 244H475L466 241L458 234L455 226V215L458 207L465 200L472 197ZM478 209L472 212L469 216V224L474 230L481 231L487 228L490 222L489 215L484 210L478 209Z" fill="#6A2F6F"/>
</svg>
